<svg width="375" height="1345" viewBox="0 0 375 1345" fill="none" xmlns="http://www.w3.org/2000/svg">
<g clip-path="url(#clip0)">
<rect width="375" height="1345" fill="#1F252B" fill-opacity="0.74"/>
<g filter="url(#filter0_f)">
<path d="M-294.12 883.525C-213.854 661.376 12.0367 364.033 227.608 883.525C147.342 1379.09 -213.854 661.376 -294.12 883.525Z" fill="url(#paint0_linear)"/>
<path d="M227.608 883.525C141.608 661.376 -78.5492 364.033 -294.12 883.525C-213.854 1379.09 141.608 661.376 227.608 883.525Z" fill="url(#paint1_linear)"/>
<path d="M370.938 1943.01C290.673 1515.8 -351.453 1276.56 -437.452 1584.15V1755.04C-208.121 1377.7 101.475 2865.78 370.938 1943.01Z" fill="url(#paint2_linear)"/>
<path d="M-437.452 1755.04C-437.452 1755.04 -443.185 1669.6 -437.452 1584.16C-30.3897 2353.13 307.873 353.788 370.938 1532.89C380.077 1703.78 370.938 1943.01 370.938 1943.01C279.206 1464.54 -87.722 2524.02 -437.452 1755.04Z" fill="url(#paint3_linear)"/>
</g>
<g filter="url(#filter1_f)">
<path d="M1098.86 98.8927C977.63 -119.494 7.744 -241.794 -122.151 -84.5537V2.80177C224.236 -190.088 691.861 570.613 1098.86 98.8927Z" fill="url(#paint4_linear)"/>
<path d="M-122.151 2.80341C-122.151 2.80341 -130.811 -40.8727 -122.151 -84.5503C492.687 308.548 1003.61 -713.51 1098.86 -110.757C1112.67 -23.4016 1098.86 98.8961 1098.86 98.8961C960.31 -145.699 406.091 395.905 -122.151 2.80341Z" fill="url(#paint5_linear)"/>
<path d="M994.949 387.167C830.414 596.82 406.089 876.358 -9.57617 387.167C432.069 631.762 968.969 168.779 994.949 387.167Z" fill="url(#paint6_linear)"/>
<path d="M-9.57617 387.167C152.067 590.996 579.283 876.358 994.949 387.167C553.305 631.762 16.4034 168.779 -9.57617 387.167Z" fill="url(#paint7_linear)"/>
</g>
</g>
<rect width="375" height="1345" fill="#1F252B" fill-opacity="0.4"/>
<defs>
<filter id="filter0_f" x="-560" y="475" width="1055" height="1895" filterUnits="userSpaceOnUse" color-interpolation-filters="sRGB">
<feFlood flood-opacity="0" result="BackgroundImageFix"/>
<feBlend mode="normal" in="SourceGraphic" in2="BackgroundImageFix" result="shape"/>
<feGaussianBlur stdDeviation="60" result="effect1_foregroundBlur"/>
</filter>
<filter id="filter1_f" x="-246" y="-426" width="1471" height="1205" filterUnits="userSpaceOnUse" color-interpolation-filters="sRGB">
<feFlood flood-opacity="0" result="BackgroundImageFix"/>
<feBlend mode="normal" in="SourceGraphic" in2="BackgroundImageFix" result="shape"/>
<feGaussianBlur stdDeviation="60" result="effect1_foregroundBlur"/>
</filter>
<linearGradient id="paint0_linear" x1="-249.056" y1="995.27" x2="145.253" y2="1029.75" gradientUnits="userSpaceOnUse">
<stop stop-color="#FFE600"/>
<stop offset="1" stop-color="#BC2A79"/>
</linearGradient>
<linearGradient id="paint1_linear" x1="-351.452" y1="1054.41" x2="655.64" y2="966.355" gradientUnits="userSpaceOnUse">
<stop stop-color="#FFE600"/>
<stop offset="1" stop-color="#FF0F91"/>
</linearGradient>
<linearGradient id="paint2_linear" x1="-367.632" y1="2135.01" x2="244.226" y2="2183.1" gradientUnits="userSpaceOnUse">
<stop stop-color="#BBAD30"/>
<stop offset="1" stop-color="#BA2A78"/>
</linearGradient>
<linearGradient id="paint3_linear" x1="-369.604" y1="1917.19" x2="772.674" y2="1999.72" gradientUnits="userSpaceOnUse">
<stop stop-color="#FFE600"/>
<stop offset="1" stop-color="#FF0F91"/>
</linearGradient>
<linearGradient id="paint4_linear" x1="-16.6935" y1="197.042" x2="865.606" y2="401.927" gradientUnits="userSpaceOnUse">
<stop stop-color="#BBAD30"/>
<stop offset="1" stop-color="#BA2A78"/>
</linearGradient>
<linearGradient id="paint5_linear" x1="-19.6723" y1="85.6949" x2="1639.08" y2="439.776" gradientUnits="userSpaceOnUse">
<stop stop-color="#FFE600"/>
<stop offset="1" stop-color="#FF0F91"/>
</linearGradient>
<linearGradient id="paint6_linear" x1="-165.45" y1="570.614" x2="929.009" y2="328.81" gradientUnits="userSpaceOnUse">
<stop stop-color="#FFE600"/>
<stop offset="1" stop-color="#C43B85"/>
</linearGradient>
<linearGradient id="paint7_linear" x1="77.1946" y1="610.061" x2="1354.93" y2="806.523" gradientUnits="userSpaceOnUse">
<stop stop-color="#FFE600"/>
<stop offset="1" stop-color="#FF0F91"/>
</linearGradient>
<clipPath id="clip0">
<rect width="375" height="1345" fill="white"/>
</clipPath>
</defs>
</svg>
