<?xml version="1.0" encoding="UTF-8" standalone="no"?>
<svg
   xmlns:dc="http://purl.org/dc/elements/1.1/"
   xmlns:cc="http://creativecommons.org/ns#"
   xmlns:rdf="http://www.w3.org/1999/02/22-rdf-syntax-ns#"
   xmlns:svg="http://www.w3.org/2000/svg"
   xmlns="http://www.w3.org/2000/svg"
   xmlns:xlink="http://www.w3.org/1999/xlink"
   width="512"
   height="512"
   viewBox="0 0 512 512"
   fill="none"
   version="1.1"
   id="svg72">
  <metadata
     id="metadata76">
    <rdf:RDF>
      <cc:Work
         rdf:about="">
        <dc:format>image/svg+xml</dc:format>
        <dc:type
           rdf:resource="http://purl.org/dc/dcmitype/StillImage" />
        <dc:title></dc:title>
      </cc:Work>
    </rdf:RDF>
  </metadata>
  <g
     filter="url(#filter0_b)"
     id="g24"
     transform="translate(-63.5356,-22)">
    <path
       id="path10"
       style="fill:url(#linearGradient180)"
       transform="translate(63.5356,22)"
       d="m 22.177734,21.138672 c -0.276797,0.04385 -0.534925,0.18835 -0.802734,0.279297 -0.41635,0.757089 -0.234134,0.419611 0.802734,-0.279297 z m 6.388672,3.859375 c -0.06005,0.149352 -0.125835,0.296577 -0.1875,0.445312 0.156175,-0.0073 0.31146,-0.02022 0.466797,-0.03516 -0.0928,-0.136954 -0.185776,-0.273481 -0.279297,-0.410156 z m 21.699219,4.099609 c 0.14205,-0.118597 -0.297981,0.218775 -0.447266,0.328125 -0.02951,0.03688 -0.05471,0.06715 -0.08398,0.103516 0.17611,-0.145025 0.356147,-0.285447 0.53125,-0.431641 z" />
  </g>
  <defs
     id="defs70">
    <filter
       id="filter0_b"
       x="59.535599"
       y="18"
       width="287.29199"
       height="101.5"
       filterUnits="userSpaceOnUse"
       color-interpolation-filters="sRGB">
      <feFlood
         flood-opacity="0"
         result="BackgroundImageFix"
         id="feFlood26" />
      <feGaussianBlur
         in="BackgroundImage"
         stdDeviation="2"
         id="feGaussianBlur28" />
      <feComposite
         in2="SourceAlpha"
         operator="in"
         result="effect1_backgroundBlur"
         id="feComposite30" />
      <feBlend
         mode="normal"
         in="SourceGraphic"
         in2="effect1_backgroundBlur"
         result="shape"
         id="feBlend32" />
    </filter>
    <linearGradient
       id="paint0_linear"
       x1="35.5"
       y1="96"
       x2="324.65201"
       y2="179.041"
       gradientUnits="userSpaceOnUse"
       gradientTransform="translate(-63.5356,-22)">
      <stop
         stop-color="#FFE600"
         id="stop35" />
      <stop
         offset="1"
         stop-color="#FF0F91"
         id="stop37" />
    </linearGradient>
    <linearGradient
       id="paint1_linear"
       x1="176.42999"
       y1="36.269501"
       x2="208.877"
       y2="44.725498"
       gradientUnits="userSpaceOnUse"
       gradientTransform="translate(67.462851,181.12535)">
      <stop
         stop-color="#FFE600"
         id="stop40" />
      <stop
         offset="1"
         stop-color="#BC2A79"
         id="stop42" />
    </linearGradient>
    <linearGradient
       id="paint2_linear"
       x1="167.5"
       y1="38"
       x2="250.37199"
       y2="16.402901"
       gradientUnits="userSpaceOnUse"
       gradientTransform="translate(67.462851,181.12535)">
      <stop
         stop-color="#FFE600"
         id="stop45" />
      <stop
         offset="1"
         stop-color="#FF0F91"
         id="stop47" />
    </linearGradient>
    <linearGradient
       id="paint3_linear"
       x1="166.089"
       y1="69.617699"
       x2="216.98599"
       y2="81.540398"
       gradientUnits="userSpaceOnUse"
       gradientTransform="translate(67.462851,181.12535)">
      <stop
         stop-color="#BBAD30"
         id="stop50" />
      <stop
         offset="1"
         stop-color="#BA2A78"
         id="stop52" />
    </linearGradient>
    <linearGradient
       id="paint4_linear"
       x1="165.91701"
       y1="63.244499"
       x2="261.61801"
       y2="83.851997"
       gradientUnits="userSpaceOnUse">
      <stop
         stop-color="#FFE600"
         id="stop55" />
      <stop
         offset="1"
         stop-color="#FF0F91"
         id="stop57" />
    </linearGradient>
    <linearGradient
       id="paint5_linear"
       x1="157.5"
       y1="91"
       x2="220.64101"
       y2="76.927696"
       gradientUnits="userSpaceOnUse">
      <stop
         stop-color="#FFE600"
         id="stop60" />
      <stop
         offset="1"
         stop-color="#C43B85"
         id="stop62" />
    </linearGradient>
    <linearGradient
       id="paint6_linear"
       x1="171.50999"
       y1="93.257797"
       x2="245.255"
       y2="104.696"
       gradientUnits="userSpaceOnUse">
      <stop
         stop-color="#FFE600"
         id="stop65" />
      <stop
         offset="1"
         stop-color="#FF0F91"
         id="stop67" />
    </linearGradient>
    <linearGradient
       xlink:href="#paint0_linear"
       id="linearGradient180"
       gradientUnits="userSpaceOnUse"
       gradientTransform="translate(-63.5356,-22)"
       x1="35.5"
       y1="96"
       x2="324.65201"
       y2="179.041" />
    <linearGradient
       xlink:href="#paint5_linear"
       id="linearGradient346"
       gradientUnits="userSpaceOnUse"
       x1="157.5"
       y1="91"
       x2="220.64101"
       y2="76.927696"
       gradientTransform="translate(67.462851,181.12535)" />
    <linearGradient
       xlink:href="#paint6_linear"
       id="linearGradient348"
       gradientUnits="userSpaceOnUse"
       x1="171.50999"
       y1="93.257797"
       x2="245.255"
       y2="104.696"
       gradientTransform="translate(67.462851,181.12535)" />
    <linearGradient
       xlink:href="#paint4_linear"
       id="linearGradient426"
       gradientUnits="userSpaceOnUse"
       x1="165.91701"
       y1="63.244499"
       x2="261.61801"
       y2="83.851997"
       gradientTransform="translate(67.462851,181.12535)" />
  </defs>
  <g
     id="layer2">
    <g
       id="g440"
       transform="matrix(5.6277435,0,0,5.5889275,-1222.852,-1093.5485)">
      <path
         d="m 239.96285,214.12525 c 7,-6.4999 26.7,-15.2 45.5,0 -7,14.5001 -38.5,-6.4999 -45.5,0 z"
         fill="url(#paint1_linear)"
         id="path12"
         style="fill:url(#paint1_linear)" />
      <path
         d="m 285.46285,214.12525 c -7.5,-6.4999 -26.7,-15.2 -45.5,0 7,14.5001 38,-6.4999 45.5,0 z"
         fill="url(#paint2_linear)"
         id="path14"
         style="fill:url(#paint2_linear)" />
      <path
         id="path16"
         style="fill:url(#paint3_linear)"
         d="m 245.72697,230.55504 c -8.84095,0.008 -15.91993,1.25781 -18.26368,4.07031 v 5 c 20,-11.0405 47,32.5 70.5,5.5 -4.8125,-8.59368 -32.78625,-14.58774 -52.23632,-14.57031 z" />
      <path
         d="m 227.46285,239.62535 c 0,0 -0.5,-2.4999 0,-4.9999 35.5,22.4999 65,-36 70.5,-1.5 0.797,5 0,12 0,12 -8,-14 -40,17 -70.5,-5.5001 z"
         fill="url(#paint4_linear)"
         id="path18"
         style="fill:url(#linearGradient426)" />
      <path
         d="m 291.96285,261.62525 c -9.5,12.0001 -34,28.0001 -58,0 25.5,14.0001 56.5,-12.4999 58,0 z"
         fill="url(#paint5_linear)"
         id="path20"
         style="fill:url(#linearGradient346)" />
      <path
         d="m 233.96285,261.62525 c 28.2588,32.7334 54.74586,4.61068 58,0 -25.5,14.0001 -56.5,-12.4999 -58,0 z"
         fill="url(#paint6_linear)"
         id="path22"
         style="fill:url(#linearGradient348)" />
    </g>
  </g>
</svg>
