<svg width="51.96" height="89" fill="none" version="1.1" viewBox="0 0 51.96 89" xmlns="http://www.w3.org/2000/svg" xmlns:cc="http://creativecommons.org/ns#" xmlns:dc="http://purl.org/dc/elements/1.1/" xmlns:rdf="http://www.w3.org/1999/02/22-rdf-syntax-ns#">
 <metadata>
  <rdf:RDF>
   <cc:Work rdf:about="">
    <dc:format>image/svg+xml</dc:format>
    <dc:type rdf:resource="http://purl.org/dc/dcmitype/StillImage"/>
    <dc:title/>
   </cc:Work>
  </rdf:RDF>
 </metadata>
 <g transform="translate(-227.33)" clip-path="url(#clip0)">
  <path d="m238.09 89c-0.734 0-1.1-0.367-1.1-1.1l0.3-5.4c0.066-0.867 0.166-1.733 0.3-2.6 0.2-0.8 0.533-1.533 1-2.2 0.533-0.6667 1.266-1.2 2.2-1.6 0.933-0.4 2.166-0.6 3.7-0.6h33.2c0.4 0 0.766 0.1 1.1 0.3 0.333 0.2667 0.5 0.6333 0.5 1.1l-0.4 5.4c-0.134 2-0.7 3.6-1.7 4.8-0.934 1.267-2.9 1.9-5.9 1.9z" fill="url(#paint0_linear)"/>
 </g>
 <defs>
  <linearGradient id="paint0_linear" x1="-28.036" x2="261.12" y1="74" y2="157.04" gradientUnits="userSpaceOnUse">
   <stop stop-color="#FFE600" offset="0"/>
   <stop stop-color="#FF0F91" offset="1"/>
  </linearGradient>
  <clipPath id="clip0">
   <rect width="279.29" height="93.5" fill="#fff"/>
  </clipPath>
 </defs>
</svg>
