<?xml version="1.0" encoding="UTF-8" standalone="no"?>
<svg
   xmlns:dc="http://purl.org/dc/elements/1.1/"
   xmlns:cc="http://creativecommons.org/ns#"
   xmlns:rdf="http://www.w3.org/1999/02/22-rdf-syntax-ns#"
   xmlns:svg="http://www.w3.org/2000/svg"
   xmlns="http://www.w3.org/2000/svg"
   xmlns:sodipodi="http://sodipodi.sourceforge.net/DTD/sodipodi-0.dtd"
   xmlns:inkscape="http://www.inkscape.org/namespaces/inkscape"
   width="279.29239"
   height="93.5"
   viewBox="0 0 279.29239 93.5"
   fill="none"
   version="1.1"
   id="svg72"
   sodipodi:docname="globTextLogo.svg"
   inkscape:version="1.0.2 (e86c8708, 2021-01-15)">
  <metadata
     id="metadata76">
    <rdf:RDF>
      <cc:Work
         rdf:about="">
        <dc:format>image/svg+xml</dc:format>
        <dc:type
           rdf:resource="http://purl.org/dc/dcmitype/StillImage" />
        <dc:title></dc:title>
      </cc:Work>
    </rdf:RDF>
  </metadata>
  <sodipodi:namedview
     pagecolor="#ffffff"
     bordercolor="#666666"
     borderopacity="1"
     objecttolerance="10"
     gridtolerance="10"
     guidetolerance="10"
     inkscape:pageopacity="0"
     inkscape:pageshadow="2"
     inkscape:window-width="1280"
     inkscape:window-height="672"
     id="namedview74"
     showgrid="false"
     inkscape:zoom="1.5382752"
     inkscape:cx="93.140641"
     inkscape:cy="21.087687"
     inkscape:window-x="0"
     inkscape:window-y="26"
     inkscape:window-maximized="0"
     inkscape:current-layer="g24"
     inkscape:document-rotation="0" />
  <g
     filter="url(#filter0_b)"
     id="g24"
     transform="translate(-63.5356,-22)">
    <path
       id="path10"
       style="fill:url(#paint0_linear)"
       transform="translate(63.5356,22)"
       d="m 71.601562,0 c -0.866999,0 -1.399609,0.10078125 -1.599609,0.30078125 -0.267,0.2667 -0.434,1.13290935 -0.5,2.59960935 -0.4,7.1333004 -0.799219,13.3988284 -1.199219,18.7988284 -0.334,5.4 -0.667,10.101562 -1,14.101562 -0.267,4 -0.534781,7.399219 -0.800781,10.199219 -0.267,2.8 -0.499219,5.166309 -0.699219,7.099609 -0.134,1.8667 -0.26739,3.39961 -0.40039,4.59961 -0.067,1.2 -0.09961,2.2 -0.09961,3 0,5.0667 0.899219,8.70039 2.699219,10.90039 1.8,2.2 4.766391,3.300782 8.900391,3.300782 2.333,0 4.232219,-0.3333 5.699218,-1 1.533001,-0.7333 2.734563,-1.667482 3.601563,-2.800782 0.866,-1.2 1.464828,-2.50039 1.798828,-3.90039 0.333,-1.4667 0.5,-2.931738 0.5,-4.398438 0,-0.3333 -0.334,-0.534862 -1,-0.601562 -0.6,-0.1333 -1.267,-0.33291 -2,-0.59961 -0.734,-0.3333 -1.433609,-0.866309 -2.099609,-1.599609 -0.6,-0.7333 -0.900391,-1.965919 -0.900391,-3.699219 0,-1.2667 0.06717,-3.134862 0.201172,-5.601562 0.2,-2.4667 0.432219,-5.232128 0.699219,-8.298828 0.266,-3.1333 0.533781,-6.400782 0.800781,-9.800782 0.266,-3.4 0.531828,-6.665528 0.798828,-9.798828 0.266,-3.1333 0.46561,-5.93369 0.599609,-8.40039 0.200002,-2.5333 0.300782,-4.4674816 0.300782,-5.8007816 0,-1.1333 -0.167,-2.1992188 -0.5,-3.1992188 -0.334,-1.0667 -0.899219,-2.0007812 -1.699219,-2.8007812 -0.8,-0.8 -1.868172,-1.4336907 -3.201172,-1.90039065 -1.334,-0.4667 -3,-0.69921875 -5,-0.69921875 z M 180.87109,0 c -1,0 -1.59882,0.13369063 -1.79882,0.40039062 -0.2,0.20000001 -0.30079,1.03329998 -0.30079,2.49999998 0,1 -0.10078,2.8003907 -0.30078,5.4003906 -0.134,2.5999998 -0.33361,5.5999998 -0.59961,8.9999998 -0.267,3.3333 -0.53282,6.899219 -0.79882,10.699219 -0.267,3.7333 -0.53479,7.266309 -0.80079,10.599609 -0.267,3.3333 -0.49921,6.267482 -0.69921,8.800782 -0.134,2.5333 -0.20118,4.232909 -0.20118,5.099609 0,2.2 0.19961,4.634081 0.59961,7.300781 0.4,2.6 1.36639,5.032128 2.90039,7.298828 1.533,2.2667 3.80079,4.167872 6.80079,5.701172 2.99998,1.4667 7.06521,2.199219 12.19921,2.199219 4.2,0 7.83339,-0.532909 10.90039,-1.599609 3.133,-1.0667 5.8,-2.467872 8,-4.201172 2.2,-1.7333 3.96679,-3.7333 5.30079,-6 1.4,-2.3333 2.46521,-4.69961 3.19921,-7.09961 0.8,-2.4667 1.33261,-4.93369 1.59961,-7.40039 0.333,-2.4667 0.5,-4.732128 0.5,-6.798828 C 227.37109,33.967091 225.7367,28 222.4707,24 c -3.2,-4 -7.83243,-6 -13.89843,-6 -3.6,0 -6.50118,0.732519 -8.70118,2.199219 -2.2,1.4 -4.16739,3.601562 -5.90039,6.601562 0.333,-4.4 0.60078,-8.2333 0.80078,-11.5 0.266,-3.2667 0.4004,-5.4682623 0.4004,-6.6015622 0,-1.2000001 -0.16701,-2.2988282 -0.5,-3.2988282 -0.33402,-1.0667 -0.90118,-2.0007812 -1.70118,-2.8007812 -0.8,-0.8 -1.86622,-1.4336907 -3.19922,-1.90039065 -1.334,-0.4667 -3,-0.69921875 -5,-0.69921875 z M 23.699219,18 c -4.8,0 -8.732128,1 -11.798828,3 -3.0666008,1.9333 -5.5007816,4.400391 -7.3007816,7.400391 -1.7333,3 -2.9329094,6.30039 -3.5996094,9.90039 -0.6666,3.5333 -1,6.89961 -1,10.09961 0,3.9333 0.4341813,7.332518 1.3007812,10.199218 0.9334001,2.8 2.1988282,5.1333 3.7988282,7 1.6,1.8667 3.5341808,3.23291 5.8007816,4.09961 2.2667,0.8667 4.7667,1.300781 7.5,1.300781 3.6,0 6.6,-0.699609 9,-2.099609 2.4,-1.4667 4.433009,-3.701172 6.099609,-6.701172 0,6.0667 -0.899219,10.70039 -2.699219,13.90039 C 29.067481,79.366609 25.999609,81 21.599609,81 19.066309,81 17.2,80.667 16,80 c -1.2,-0.667 -2.134081,-1.433781 -2.800781,-2.300781 -0.6666,-0.8 -1.265428,-1.532519 -1.798828,-2.199219 -0.5333,-0.6667 -1.3666,-1 -2.5000004,-1 -0.9333,0 -1.9333,0.133691 -3,0.400391 -1,0.3333 -1.9340812,0.80039 -2.8007812,1.40039 -0.8666,0.6 -1.5662094,1.365528 -2.0996094,2.298828 -0.5333,0.933 -0.80078125,2.033782 -0.80078125,3.300782 0,1.4 0.43418125,2.799218 1.30078125,4.199218 0.9334,1.4 2.2667,2.634172 4,3.701172 1.7334,1.133 3.9,2.032219 6.5,2.699219 2.6667,0.667 5.767481,1 9.300781,1 4.6667,0 8.598828,-0.5 11.798828,-1.5 3.2667,-1 5.933,-2.333 8,-4 2.066,-1.667 3.666782,-3.566219 4.800782,-5.699219 1.133,-2.133 1.93339,-4.334862 2.40039,-6.601562 0.466,-2.2667 0.898828,-4.898438 1.298828,-7.898438 0.4,-3 0.767563,-6.13369 1.101563,-9.40039 0.333,-3.2667 0.631437,-6.501172 0.898437,-9.701172 0.266,-3.2667 0.467563,-6.231738 0.601563,-8.898438 0.2,-2.6667 0.331437,-4.934081 0.398437,-6.800781 0.066,-1.9333 0.101563,-3.165919 0.101563,-3.699219 0,-4 -0.800391,-6.701562 -2.400391,-8.101562 -1.534,-1.4667 -4.034,-2.199219 -7.5,-2.199219 h -4.599609 c -0.8,0 -1.234781,0.3333 -1.300781,1 0,0.2 -0.03361,0.667091 -0.09961,1.400391 0,0.6667 -0.03361,1.366309 -0.09961,2.099609 -0.067,0.7333 -0.135172,1.4 -0.201172,2 v 0.699219 C 36.166301,25.065919 35.6667,24 35,23 34.4,22 33.5667,21.133691 32.5,20.400391 31.5,19.667091 30.267481,19.099219 28.800781,18.699219 27.400781,18.232519 25.699219,18 23.699219,18 Z m 4.5,13.300781 c 2.4667,0 4.3,0.86631 5.5,2.59961 1.2667,1.6667 1.90039,4.5 1.90039,8.5 0,1.2667 -0.09883,2.7667 -0.298828,4.5 -0.2,1.7333 -0.66699,3.4 -1.40039,5 -0.7333,1.6 -1.801172,2.966309 -3.201172,4.099609 -1.3333,1.1333 -3.19961,1.699219 -5.59961,1.699219 -2.7333,0 -4.665428,-0.798438 -5.798828,-2.398438 -1.1333,-1.6667 -1.701172,-4.1667 -1.701172,-7.5 0,-1 0.100782,-2.401172 0.300782,-4.201172 0.2,-1.8667 0.632228,-3.7 1.298828,-5.5 0.7334,-1.8667 1.801172,-3.465528 3.201172,-4.798828 1.4,-1.3333 3.332228,-2 5.798828,-2 z m 174.171871,0 c 2.733,0 4.66678,1 5.80079,3 1.13299,1.9333 1.69921,4.7667 1.69921,8.5 0,1.2 -0.0988,2.8667 -0.29882,5 -0.2,2.1333 -0.6674,4.232128 -1.40039,6.298828 -0.66702,2.0667 -1.69961,3.867091 -3.09961,5.400391 -1.334,1.4667 -3.20157,2.199219 -5.60157,2.199219 -2.534,0 -4.43322,-0.965138 -5.69922,-2.898438 -1.267,-2 -1.90039,-5.30039 -1.90039,-9.90039 0,-1.5333 0.10078,-3.300782 0.30079,-5.300782 0.19999,-2.0667 0.66639,-3.998828 1.40039,-5.798828 0.733,-1.8 1.76559,-3.334862 3.09961,-4.601562 1.39999,-1.2667 3.29921,-1.898438 5.69921,-1.898438 z" />
    <path
       d="m 172.5,32.9999 c 7,-6.4999 26.7,-15.2 45.5,0 -7,14.5001 -38.5,-6.4999 -45.5,0 z"
       fill="url(#paint1_linear)"
       id="path12"
       style="fill:url(#paint1_linear)" />
    <path
       d="m 218,32.9999 c -7.5,-6.4999 -26.7,-15.2 -45.5,0 7,14.5001 38,-6.4999 45.5,0 z"
       fill="url(#paint2_linear)"
       id="path14"
       style="fill:url(#paint2_linear)" />
    <path
       d="m 230.5,63.9999 c -7,-12.4999 -63,-19.5 -70.5,-10.5 v 5 c 20,-11.0405 47,32.5 70.5,5.5 z"
       fill="url(#paint3_linear)"
       id="path16"
       style="fill:url(#paint3_linear)" />
    <path
       d="m 160,58.5 c 0,0 -0.5,-2.4999 0,-4.9999 35.5,22.4999 65,-36 70.5,-1.5 0.797,5 0,12 0,12 -8,-14 -40,17 -70.5,-5.5001 z"
       fill="url(#paint4_linear)"
       id="path18"
       style="fill:url(#paint4_linear)" />
    <path
       d="m 224.5,80.4999 c -9.5,12.0001 -34,28.0001 -58,0 25.5,14.0001 56.5,-12.4999 58,0 z"
       fill="url(#paint5_linear)"
       id="path20"
       style="fill:url(#paint5_linear)" />
    <path
       d="m 166.5,80.4999 c 28.2588,32.7334 54.74586,4.610678 58,0 C 199,94.5 168,68 166.5,80.4999 Z"
       fill="url(#paint6_linear)"
       id="path22"
       sodipodi:nodetypes="ccc"
       style="fill:url(#paint6_linear)" />
  </g>
  <defs
     id="defs70">
    <filter
       id="filter0_b"
       x="59.535599"
       y="18"
       width="287.29199"
       height="101.5"
       filterUnits="userSpaceOnUse"
       color-interpolation-filters="sRGB">
      <feFlood
         flood-opacity="0"
         result="BackgroundImageFix"
         id="feFlood26" />
      <feGaussianBlur
         in="BackgroundImage"
         stdDeviation="2"
         id="feGaussianBlur28" />
      <feComposite
         in2="SourceAlpha"
         operator="in"
         result="effect1_backgroundBlur"
         id="feComposite30" />
      <feBlend
         mode="normal"
         in="SourceGraphic"
         in2="effect1_backgroundBlur"
         result="shape"
         id="feBlend32" />
    </filter>
    <linearGradient
       id="paint0_linear"
       x1="35.5"
       y1="96"
       x2="324.65201"
       y2="179.041"
       gradientUnits="userSpaceOnUse"
       gradientTransform="translate(-63.5356,-22)">
      <stop
         stop-color="#FFE600"
         id="stop35" />
      <stop
         offset="1"
         stop-color="#FF0F91"
         id="stop37" />
    </linearGradient>
    <linearGradient
       id="paint1_linear"
       x1="176.42999"
       y1="36.269501"
       x2="208.877"
       y2="44.725498"
       gradientUnits="userSpaceOnUse">
      <stop
         stop-color="#FFE600"
         id="stop40" />
      <stop
         offset="1"
         stop-color="#BC2A79"
         id="stop42" />
    </linearGradient>
    <linearGradient
       id="paint2_linear"
       x1="167.5"
       y1="38"
       x2="250.37199"
       y2="16.402901"
       gradientUnits="userSpaceOnUse">
      <stop
         stop-color="#FFE600"
         id="stop45" />
      <stop
         offset="1"
         stop-color="#FF0F91"
         id="stop47" />
    </linearGradient>
    <linearGradient
       id="paint3_linear"
       x1="166.089"
       y1="69.617699"
       x2="216.98599"
       y2="81.540398"
       gradientUnits="userSpaceOnUse">
      <stop
         stop-color="#BBAD30"
         id="stop50" />
      <stop
         offset="1"
         stop-color="#BA2A78"
         id="stop52" />
    </linearGradient>
    <linearGradient
       id="paint4_linear"
       x1="165.91701"
       y1="63.244499"
       x2="261.61801"
       y2="83.851997"
       gradientUnits="userSpaceOnUse">
      <stop
         stop-color="#FFE600"
         id="stop55" />
      <stop
         offset="1"
         stop-color="#FF0F91"
         id="stop57" />
    </linearGradient>
    <linearGradient
       id="paint5_linear"
       x1="157.5"
       y1="91"
       x2="220.64101"
       y2="76.927696"
       gradientUnits="userSpaceOnUse">
      <stop
         stop-color="#FFE600"
         id="stop60" />
      <stop
         offset="1"
         stop-color="#C43B85"
         id="stop62" />
    </linearGradient>
    <linearGradient
       id="paint6_linear"
       x1="171.50999"
       y1="93.257797"
       x2="245.255"
       y2="104.696"
       gradientUnits="userSpaceOnUse">
      <stop
         stop-color="#FFE600"
         id="stop65" />
      <stop
         offset="1"
         stop-color="#FF0F91"
         id="stop67" />
    </linearGradient>
  </defs>
</svg>
