<?xml version="1.0" encoding="UTF-8" standalone="no"?>
<svg
   xmlns:dc="http://purl.org/dc/elements/1.1/"
   xmlns:cc="http://creativecommons.org/ns#"
   xmlns:rdf="http://www.w3.org/1999/02/22-rdf-syntax-ns#"
   xmlns:svg="http://www.w3.org/2000/svg"
   xmlns="http://www.w3.org/2000/svg"
   xmlns:sodipodi="http://sodipodi.sourceforge.net/DTD/sodipodi-0.dtd"
   xmlns:inkscape="http://www.inkscape.org/namespaces/inkscape"
   width="279.29239"
   height="93.5"
   viewBox="0 0 279.29239 93.5"
   fill="none"
   version="1.1"
   id="svg72"
   sodipodi:docname="globFullLogo.svg"
   inkscape:version="1.0.2 (e86c8708, 2021-01-15)">
  <metadata
     id="metadata76">
    <rdf:RDF>
      <cc:Work
         rdf:about="">
        <dc:format>image/svg+xml</dc:format>
        <dc:type
           rdf:resource="http://purl.org/dc/dcmitype/StillImage" />
        <dc:title></dc:title>
      </cc:Work>
    </rdf:RDF>
  </metadata>
  <sodipodi:namedview
     pagecolor="#ffffff"
     bordercolor="#666666"
     borderopacity="1"
     objecttolerance="10"
     gridtolerance="10"
     guidetolerance="10"
     inkscape:pageopacity="0"
     inkscape:pageshadow="2"
     inkscape:window-width="1280"
     inkscape:window-height="800"
     id="namedview74"
     showgrid="false"
     inkscape:zoom="1.5382752"
     inkscape:cx="73.638279"
     inkscape:cy="97.796978"
     inkscape:window-x="0"
     inkscape:window-y="0"
     inkscape:window-maximized="0"
     inkscape:current-layer="g24" />
  <g
     filter="url(#filter0_b)"
     id="g24"
     transform="translate(-63.5356,-22)">
    <path
       d="m 97.0356,84.2 c -1.6666,3 -3.7,5.2333 -6.1,6.7 -2.4,1.4 -5.4,2.1 -9,2.1 -2.7333,0 -5.2333,-0.4333 -7.5,-1.3 -2.2666,-0.8667 -4.2,-2.2333 -5.8,-4.1 -1.6,-1.8667 -2.8666,-4.2 -3.8,-7 -0.8666,-2.8667 -1.3,-6.2667 -1.3,-10.2 0,-3.2 0.3334,-6.5667 1,-10.1 0.6667,-3.6 1.8667,-6.9 3.6,-9.9 1.8,-3 4.2334,-5.4667 7.3,-7.4 3.0667,-2 7,-3 11.8,-3 2,0 3.7,0.2333 5.1,0.7 1.4667,0.4 2.7,0.9667 3.7,1.7 1.0667,0.7333 1.9,1.6 2.5,2.6 0.6667,1 1.1667,2.0667 1.5004,3.2 0,0.0667 0,-0.1667 0,-0.7 0.066,-0.6 0.133,-1.2667 0.2,-2 0.066,-0.7333 0.1,-1.4333 0.1,-2.1 0.066,-0.7333 0.1,-1.2 0.1,-1.4 0.066,-0.6667 0.5,-1 1.3,-1 h 4.6 c 3.466,0 5.966,0.7333 7.5,2.2 1.6,1.4 2.4,4.1 2.4,8.1 0,0.5333 -0.034,1.7667 -0.1,3.7 -0.067,1.8667 -0.2,4.1333 -0.4,6.8 -0.134,2.6667 -0.334,5.6333 -0.6,8.9 -0.267,3.2 -0.567,6.4333 -0.9,9.7 -0.334,3.2667 -0.7,6.4 -1.1,9.4 -0.4,3 -0.834,5.6333 -1.3,7.9 -0.467,2.2667 -1.267,4.467 -2.4,6.6 -1.134,2.133 -2.734,4.033 -4.8,5.7 -2.067,1.667 -4.7337,3 -8.0004,4 -3.2,1 -7.1333,1.5 -11.8,1.5 -3.5333,0 -6.6333,-0.333 -9.3,-1 -2.6,-0.667 -4.7666,-1.567 -6.5,-2.7 -1.7333,-1.067 -3.0666,-2.3 -4,-3.7 -0.8666,-1.4 -1.3,-2.8 -1.3,-4.2 0,-1.267 0.2667,-2.367 0.8,-3.3 0.5334,-0.9333 1.2334,-1.7 2.1,-2.3 0.8667,-0.6 1.8,-1.0667 2.8,-1.4 1.0667,-0.2667 2.0667,-0.4 3,-0.4 1.1334,0 1.9667,0.3333 2.5,1 0.5334,0.6667 1.1334,1.4 1.8,2.2 0.6667,0.867 1.6,1.633 2.8,2.3 1.2,0.667 3.0667,1 5.6,1 4.4,0 7.4667,-1.633 9.2,-4.9 1.8,-3.2 2.7,-7.8333 2.7,-13.9 z m -8.4,-4.5 c 2.4,0 4.2667,-0.5667 5.6,-1.7 1.4,-1.1333 2.4667,-2.5 3.2,-4.1 0.7334,-1.6 1.2,-3.2667 1.4,-5 0.2,-1.7333 0.3,-3.2333 0.3,-4.5 0,-4 -0.6333,-6.8333 -1.9,-8.5 -1.2,-1.7333 -3.0333,-2.6 -5.5,-2.6 -2.4666,0 -4.4,0.6667 -5.8,2 -1.4,1.3333 -2.4666,2.9333 -3.2,4.8 -0.6666,1.8 -1.1,3.6333 -1.3,5.5 -0.2,1.8 -0.3,3.2 -0.3,4.2 0,3.3333 0.5667,5.8333 1.7,7.5 1.1334,1.6 3.0667,2.4 5.8,2.4 z m 51.8024,17.2 c -4.134,0 -7.1,-1.1 -8.9,-3.3 -1.8,-2.2 -2.7,-5.8333 -2.7,-10.9 0,-0.8 0.033,-1.8 0.1,-3 0.133,-1.2 0.266,-2.7333 0.4,-4.6 0.2,-1.9333 0.433,-4.3 0.7,-7.1 0.266,-2.8 0.533,-6.2 0.8,-10.2 0.333,-4 0.666,-8.7 1,-14.1 0.4,-5.4 0.8,-11.6667 1.2,-18.8 0.066,-1.4667 0.233,-2.3333 0.5,-2.6 0.2,-0.2 0.733,-0.3 1.6,-0.3 h 3.9 c 2,0 3.666,0.2333 5,0.7 1.333,0.4667 2.4,1.1 3.2,1.9 0.8,0.8 1.366,1.7333 1.7,2.8 0.333,1 0.5,2.0667 0.5,3.2 0,1.3333 -0.1,3.2667 -0.3,5.8 -0.134,2.4667 -0.334,5.2667 -0.6,8.4 -0.267,3.1333 -0.534,6.4 -0.8,9.8 -0.267,3.4 -0.534,6.6667 -0.8,9.8 -0.267,3.0667 -0.5,5.8333 -0.7,8.3 -0.134,2.4667 -0.2,4.3333 -0.2,5.6 0,1.7333 0.3,2.9667 0.9,3.7 0.666,0.7333 1.366,1.2667 2.1,1.6 0.733,0.2667 1.4,0.4667 2,0.6 0.666,0.0667 1,0.2667 1,0.6 0,1.4667 -0.167,2.9333 -0.5,4.4 -0.334,1.4 -0.934,2.7 -1.8,3.9 -0.867,1.1333 -2.067,2.0667 -3.6,2.8 -1.467,0.6667 -3.367,1 -5.7,1 z M 261.407,97 c -5.134,0 -9.2,-0.7333 -12.2,-2.2 -3,-1.5333 -5.267,-3.4333 -6.8,-5.7 -1.534,-2.2667 -2.5,-4.7 -2.9,-7.3 -0.4,-2.6667 -0.6,-5.1 -0.6,-7.3 0,-0.8667 0.066,-2.5667 0.2,-5.1 0.2,-2.5333 0.433,-5.4667 0.7,-8.8 0.266,-3.3333 0.533,-6.8667 0.8,-10.6 0.266,-3.8 0.533,-7.3667 0.8,-10.7 0.266,-3.4 0.466,-6.4 0.6,-9 0.2,-2.6 0.3,-4.4 0.3,-5.4 0,-1.4667 0.1,-2.3 0.3,-2.5 0.2,-0.2667 0.8,-0.4 1.8,-0.4 h 3.9 c 2,0 3.666,0.2333 5,0.7 1.333,0.4667 2.4,1.1 3.2,1.9 0.8,0.8 1.366,1.7333 1.7,2.8 0.333,1 0.5,2.1 0.5,3.3 0,1.1333 -0.134,3.3333 -0.4,6.6 -0.2,3.2667 -0.467,7.1 -0.8,11.5 1.733,-3 3.7,-5.2 5.9,-6.6 2.2,-1.4667 5.1,-2.2 8.7,-2.2 6.066,0 10.7,2 13.9,6 3.266,4 4.9,9.9667 4.9,17.9 0,2.0667 -0.167,4.3333 -0.5,6.8 -0.267,2.4667 -0.8,4.9333 -1.6,7.4 -0.734,2.4 -1.8,4.7667 -3.2,7.1 -1.334,2.2667 -3.1,4.2667 -5.3,6 -2.2,1.7333 -4.867,3.1333 -8,4.2 -3.067,1.0667 -6.7,1.6 -10.9,1.6 z m 4.5,-43.7 c -2.4,0 -4.3,0.6333 -5.7,1.9 -1.334,1.2667 -2.367,2.8 -3.1,4.6 -0.734,1.8 -1.2,3.7333 -1.4,5.8 -0.2,2 -0.3,3.7667 -0.3,5.3 0,4.6 0.633,7.9 1.9,9.9 1.266,1.9333 3.166,2.9 5.7,2.9 2.4,0 4.266,-0.7333 5.6,-2.2 1.4,-1.5333 2.433,-3.3333 3.1,-5.4 0.733,-2.0667 1.2,-4.1667 1.4,-6.3 0.2,-2.1333 0.3,-3.8 0.3,-5 0,-3.7333 -0.567,-6.5667 -1.7,-8.5 -1.134,-2 -3.067,-3 -5.8,-3 z m 35.721,57.7 c -0.734,0 -1.1,-0.367 -1.1,-1.1 l 0.3,-5.4 c 0.066,-0.867 0.166,-1.733 0.3,-2.6 0.2,-0.8 0.533,-1.533 1,-2.2 0.533,-0.6667 1.266,-1.2 2.2,-1.6 0.933,-0.4 2.166,-0.6 3.7,-0.6 h 33.2 c 0.4,0 0.766,0.1 1.1,0.3 0.333,0.2667 0.5,0.6333 0.5,1.1 l -0.4,5.4 c -0.134,2 -0.7,3.6 -1.7,4.8 -0.934,1.267 -2.9,1.9 -5.9,1.9 z"
       fill="url(#paint0_linear)"
       id="path10"
       style="fill:url(#paint0_linear)" />
    <path
       d="m 172.5,32.9999 c 7,-6.4999 26.7,-15.2 45.5,0 -7,14.5001 -38.5,-6.4999 -45.5,0 z"
       fill="url(#paint1_linear)"
       id="path12"
       style="fill:url(#paint1_linear)" />
    <path
       d="m 218,32.9999 c -7.5,-6.4999 -26.7,-15.2 -45.5,0 7,14.5001 38,-6.4999 45.5,0 z"
       fill="url(#paint2_linear)"
       id="path14"
       style="fill:url(#paint2_linear)" />
    <path
       d="m 230.5,63.9999 c -7,-12.4999 -63,-19.5 -70.5,-10.5 v 5 c 20,-11.0405 47,32.5 70.5,5.5 z"
       fill="url(#paint3_linear)"
       id="path16"
       style="fill:url(#paint3_linear)" />
    <path
       d="m 160,58.5 c 0,0 -0.5,-2.4999 0,-4.9999 35.5,22.4999 65,-36 70.5,-1.5 0.797,5 0,12 0,12 -8,-14 -40,17 -70.5,-5.5001 z"
       fill="url(#paint4_linear)"
       id="path18"
       style="fill:url(#paint4_linear)" />
    <path
       d="m 224.5,80.4999 c -9.5,12.0001 -34,28.0001 -58,0 25.5,14.0001 56.5,-12.4999 58,0 z"
       fill="url(#paint5_linear)"
       id="path20"
       style="fill:url(#paint5_linear)" />
    <path
       d="m 166.5,80.4999 c 28.2588,32.7334 54.74586,4.610678 58,0 C 199,94.5 168,68 166.5,80.4999 Z"
       fill="url(#paint6_linear)"
       id="path22"
       sodipodi:nodetypes="ccc"
       style="fill:url(#paint6_linear)" />
  </g>
  <defs
     id="defs70">
    <filter
       id="filter0_b"
       x="59.535599"
       y="18"
       width="287.29199"
       height="101.5"
       filterUnits="userSpaceOnUse"
       color-interpolation-filters="sRGB">
      <feFlood
         flood-opacity="0"
         result="BackgroundImageFix"
         id="feFlood26" />
      <feGaussianBlur
         in="BackgroundImage"
         stdDeviation="2"
         id="feGaussianBlur28" />
      <feComposite
         in2="SourceAlpha"
         operator="in"
         result="effect1_backgroundBlur"
         id="feComposite30" />
      <feBlend
         mode="normal"
         in="SourceGraphic"
         in2="effect1_backgroundBlur"
         result="shape"
         id="feBlend32" />
    </filter>
    <linearGradient
       id="paint0_linear"
       x1="35.5"
       y1="96"
       x2="324.65201"
       y2="179.041"
       gradientUnits="userSpaceOnUse">
      <stop
         stop-color="#FFE600"
         id="stop35" />
      <stop
         offset="1"
         stop-color="#FF0F91"
         id="stop37" />
    </linearGradient>
    <linearGradient
       id="paint1_linear"
       x1="176.42999"
       y1="36.269501"
       x2="208.877"
       y2="44.725498"
       gradientUnits="userSpaceOnUse">
      <stop
         stop-color="#FFE600"
         id="stop40" />
      <stop
         offset="1"
         stop-color="#BC2A79"
         id="stop42" />
    </linearGradient>
    <linearGradient
       id="paint2_linear"
       x1="167.5"
       y1="38"
       x2="250.37199"
       y2="16.402901"
       gradientUnits="userSpaceOnUse">
      <stop
         stop-color="#FFE600"
         id="stop45" />
      <stop
         offset="1"
         stop-color="#FF0F91"
         id="stop47" />
    </linearGradient>
    <linearGradient
       id="paint3_linear"
       x1="166.089"
       y1="69.617699"
       x2="216.98599"
       y2="81.540398"
       gradientUnits="userSpaceOnUse">
      <stop
         stop-color="#BBAD30"
         id="stop50" />
      <stop
         offset="1"
         stop-color="#BA2A78"
         id="stop52" />
    </linearGradient>
    <linearGradient
       id="paint4_linear"
       x1="165.91701"
       y1="63.244499"
       x2="261.61801"
       y2="83.851997"
       gradientUnits="userSpaceOnUse">
      <stop
         stop-color="#FFE600"
         id="stop55" />
      <stop
         offset="1"
         stop-color="#FF0F91"
         id="stop57" />
    </linearGradient>
    <linearGradient
       id="paint5_linear"
       x1="157.5"
       y1="91"
       x2="220.64101"
       y2="76.927696"
       gradientUnits="userSpaceOnUse">
      <stop
         stop-color="#FFE600"
         id="stop60" />
      <stop
         offset="1"
         stop-color="#C43B85"
         id="stop62" />
    </linearGradient>
    <linearGradient
       id="paint6_linear"
       x1="171.50999"
       y1="93.257797"
       x2="245.255"
       y2="104.696"
       gradientUnits="userSpaceOnUse">
      <stop
         stop-color="#FFE600"
         id="stop65" />
      <stop
         offset="1"
         stop-color="#FF0F91"
         id="stop67" />
    </linearGradient>
  </defs>
</svg>
