<svg width="227.37" height="93.5" fill="none" version="1.1" viewBox="0 0 227.37 93.5" xmlns="http://www.w3.org/2000/svg" xmlns:cc="http://creativecommons.org/ns#" xmlns:dc="http://purl.org/dc/elements/1.1/" xmlns:rdf="http://www.w3.org/1999/02/22-rdf-syntax-ns#">
 <metadata>
  <rdf:RDF>
   <cc:Work rdf:about="">
    <dc:format>image/svg+xml</dc:format>
    <dc:type rdf:resource="http://purl.org/dc/dcmitype/StillImage"/>
    <dc:title/>
   </cc:Work>
  </rdf:RDF>
 </metadata>
 <g clip-path="url(#clip0)">
  <path d="m33.5 62.2c-1.6666 3-3.7 5.2333-6.1 6.7-2.4 1.4-5.4 2.1-9 2.1-2.7333 0-5.2333-0.4333-7.5-1.3-2.2666-0.8667-4.2-2.2333-5.8-4.1s-2.8666-4.2-3.8-7c-0.8666-2.8667-1.3-6.2667-1.3-10.2 0-3.2 0.3334-6.5667 1-10.1 0.6667-3.6 1.8667-6.9 3.6-9.9 1.8-3 4.2334-5.4667 7.3-7.4 3.0667-2 7-3 11.8-3 2 0 3.7 0.2333 5.1 0.7 1.4667 0.4 2.7 0.9667 3.7 1.7 1.0667 0.7333 1.9 1.6 2.5 2.6 0.6667 1 1.1667 2.0667 1.5004 3.2v-0.7c0.066-0.6 0.133-1.2667 0.2-2 0.066-0.7333 0.1-1.4333 0.1-2.1 0.066-0.7333 0.1-1.2 0.1-1.4 0.066-0.6667 0.5-1 1.3-1h4.6c3.466 0 5.966 0.7333 7.5 2.2 1.6 1.4 2.4 4.1 2.4 8.1 0 0.5333-0.034 1.7667-0.1 3.7-0.067 1.8667-0.2 4.1333-0.4 6.8-0.134 2.6667-0.334 5.6333-0.6 8.9-0.267 3.2-0.567 6.4333-0.9 9.7-0.334 3.2667-0.7 6.4-1.1 9.4s-0.834 5.6333-1.3 7.9c-0.467 2.2667-1.267 4.467-2.4 6.6-1.134 2.133-2.734 4.033-4.8 5.7-2.067 1.667-4.7337 3-8.0004 4-3.2 1-7.1333 1.5-11.8 1.5-3.5333 0-6.6333-0.333-9.3-1-2.6-0.667-4.7666-1.567-6.5-2.7-1.7333-1.067-3.0666-2.3-4-3.7-0.8666-1.4-1.3-2.8-1.3-4.2 0-1.267 0.2667-2.367 0.8-3.3 0.5334-0.9333 1.2334-1.7 2.1-2.3 0.8667-0.6 1.8-1.0667 2.8-1.4 1.0667-0.2667 2.0667-0.4 3-0.4 1.1334 0 1.9667 0.3333 2.5 1 0.5334 0.6667 1.1334 1.4 1.8 2.2 0.6667 0.867 1.6 1.633 2.8 2.3s3.0667 1 5.6 1c4.4 0 7.4667-1.633 9.2-4.9 1.8-3.2 2.7-7.8333 2.7-13.9zm-8.4-4.5c2.4 0 4.2667-0.5667 5.6-1.7 1.4-1.1333 2.4667-2.5 3.2-4.1 0.7334-1.6 1.2-3.2667 1.4-5s0.3-3.2333 0.3-4.5c0-4-0.6333-6.8333-1.9-8.5-1.2-1.7333-3.0333-2.6-5.5-2.6-2.4666 0-4.4 0.6667-5.8 2s-2.4666 2.9333-3.2 4.8c-0.6666 1.8-1.1 3.6333-1.3 5.5-0.2 1.8-0.3 3.2-0.3 4.2 0 3.3333 0.5667 5.8333 1.7 7.5 1.1334 1.6 3.0667 2.4 5.8 2.4zm51.802 17.2c-4.134 0-7.1-1.1-8.9-3.3s-2.7-5.8333-2.7-10.9c0-0.8 0.033-1.8 0.1-3 0.133-1.2 0.266-2.7333 0.4-4.6 0.2-1.9333 0.433-4.3 0.7-7.1 0.266-2.8 0.533-6.2 0.8-10.2 0.333-4 0.666-8.7 1-14.1 0.4-5.4 0.8-11.667 1.2-18.8 0.066-1.4667 0.233-2.3333 0.5-2.6 0.2-0.2 0.733-0.3 1.6-0.3h3.9c2 0 3.666 0.2333 5 0.7 1.333 0.4667 2.4 1.1 3.2 1.9s1.366 1.7333 1.7 2.8c0.333 1 0.5 2.0667 0.5 3.2 0 1.3333-0.1 3.2667-0.3 5.8-0.134 2.4667-0.334 5.2667-0.6 8.4-0.267 3.1333-0.534 6.4-0.8 9.8-0.267 3.4-0.534 6.6667-0.8 9.8-0.267 3.0667-0.5 5.8333-0.7 8.3-0.134 2.4667-0.2 4.3333-0.2 5.6 0 1.7333 0.3 2.9667 0.9 3.7 0.666 0.7333 1.366 1.2667 2.1 1.6 0.733 0.2667 1.4 0.4667 2 0.6 0.666 0.0667 1 0.2667 1 0.6 0 1.4667-0.167 2.9333-0.5 4.4-0.334 1.4-0.934 2.7-1.8 3.9-0.867 1.1333-2.067 2.0667-3.6 2.8-1.467 0.6667-3.367 1-5.7 1zm120.97 0.1c-5.134 0-9.2-0.7333-12.2-2.2-3-1.5333-5.267-3.4333-6.8-5.7-1.534-2.2667-2.5-4.7-2.9-7.3-0.4-2.6667-0.6-5.1-0.6-7.3 0-0.8667 0.066-2.5667 0.2-5.1 0.2-2.5333 0.433-5.4667 0.7-8.8 0.266-3.3333 0.533-6.8667 0.8-10.6 0.266-3.8 0.533-7.3667 0.8-10.7 0.266-3.4 0.466-6.4 0.6-9 0.2-2.6 0.3-4.4 0.3-5.4 0-1.4667 0.1-2.3 0.3-2.5 0.2-0.2667 0.8-0.4 1.8-0.4h3.9c2 0 3.666 0.2333 5 0.7 1.333 0.4667 2.4 1.1 3.2 1.9s1.366 1.7333 1.7 2.8c0.333 1 0.5 2.1 0.5 3.3 0 1.1333-0.134 3.3333-0.4 6.6-0.2 3.2667-0.467 7.1-0.8 11.5 1.733-3 3.7-5.2 5.9-6.6 2.2-1.4667 5.1-2.2 8.7-2.2 6.066 0 10.7 2 13.9 6 3.266 4 4.9 9.9667 4.9 17.9 0 2.0667-0.167 4.3333-0.5 6.8-0.267 2.4667-0.8 4.9333-1.6 7.4-0.734 2.4-1.8 4.7667-3.2 7.1-1.334 2.2667-3.1 4.2667-5.3 6s-4.867 3.1333-8 4.2c-3.067 1.0667-6.7 1.6-10.9 1.6zm4.5-43.7c-2.4 0-4.3 0.6333-5.7 1.9-1.334 1.2667-2.367 2.8-3.1 4.6-0.734 1.8-1.2 3.7333-1.4 5.8-0.2 2-0.3 3.7667-0.3 5.3 0 4.6 0.633 7.9 1.9 9.9 1.266 1.9333 3.166 2.9 5.7 2.9 2.4 0 4.266-0.7333 5.6-2.2 1.4-1.5333 2.433-3.3333 3.1-5.4 0.733-2.0667 1.2-4.1667 1.4-6.3s0.3-3.8 0.3-5c0-3.7333-0.567-6.5667-1.7-8.5-1.134-2-3.067-3-5.8-3z" fill="url(#paint0_linear)"/>
  <path d="m108.96 11c7-6.4999 26.7-15.2 45.5 0-7 14.5-38.5-6.4999-45.5 0z" fill="url(#paint1_linear)"/>
  <path d="m154.46 11c-7.5-6.4999-26.7-15.2-45.5 0 7 14.5 38-6.4999 45.5 0z" fill="url(#paint2_linear)"/>
  <path d="m166.96 42c-7-12.5-63-19.5-70.5-10.5v5c20-11.04 47 32.5 70.5 5.5z" fill="url(#paint3_linear)"/>
  <path d="m96.464 36.5s-0.5-2.4999 0-4.9999c35.5 22.5 65-36 70.5-1.5 0.797 5 0 12 0 12-8-14-40 17-70.5-5.5001z" fill="url(#paint4_linear)"/>
  <path d="m160.96 58.5c-9.5 12-34 28-58 0 25.5 14 56.5-12.5 58 0z" fill="url(#paint5_linear)"/>
  <path d="m102.96 58.5c28.259 32.733 54.746 4.6107 58 0-25.5 14-56.5-12.5-58 0z" fill="url(#paint6_linear)"/>
 </g>
 <defs>
  <linearGradient id="paint0_linear" x1="-28.036" x2="261.12" y1="74" y2="157.04" gradientUnits="userSpaceOnUse">
   <stop stop-color="#FFE600" offset="0"/>
   <stop stop-color="#FF0F91" offset="1"/>
  </linearGradient>
  <linearGradient id="paint1_linear" x1="112.89" x2="145.34" y1="14.27" y2="22.726" gradientUnits="userSpaceOnUse">
   <stop stop-color="#FFE600" offset="0"/>
   <stop stop-color="#BC2A79" offset="1"/>
  </linearGradient>
  <linearGradient id="paint2_linear" x1="103.96" x2="186.84" y1="16" y2="-5.5971" gradientUnits="userSpaceOnUse">
   <stop stop-color="#FFE600" offset="0"/>
   <stop stop-color="#FF0F91" offset="1"/>
  </linearGradient>
  <linearGradient id="paint3_linear" x1="102.55" x2="153.45" y1="47.618" y2="59.54" gradientUnits="userSpaceOnUse">
   <stop stop-color="#BBAD30" offset="0"/>
   <stop stop-color="#BA2A78" offset="1"/>
  </linearGradient>
  <linearGradient id="paint4_linear" x1="102.38" x2="198.08" y1="41.244" y2="61.852" gradientUnits="userSpaceOnUse">
   <stop stop-color="#FFE600" offset="0"/>
   <stop stop-color="#FF0F91" offset="1"/>
  </linearGradient>
  <linearGradient id="paint5_linear" x1="93.964" x2="157.1" y1="69" y2="54.928" gradientUnits="userSpaceOnUse">
   <stop stop-color="#FFE600" offset="0"/>
   <stop stop-color="#C43B85" offset="1"/>
  </linearGradient>
  <linearGradient id="paint6_linear" x1="107.97" x2="181.72" y1="71.258" y2="82.696" gradientUnits="userSpaceOnUse">
   <stop stop-color="#FFE600" offset="0"/>
   <stop stop-color="#FF0F91" offset="1"/>
  </linearGradient>
  <clipPath id="clip0">
   <rect width="279.29" height="93.5" fill="#fff"/>
  </clipPath>
 </defs>
</svg>
