<svg width="280" height="94" viewBox="0 0 280 94" fill="none" xmlns="http://www.w3.org/2000/svg">
<g clip-path="url(#clip0)">
<path d="M33.5 62.2C31.8334 65.2 29.8 67.4333 27.4 68.9C25 70.3 22 71 18.4 71C15.6667 71 13.1667 70.5667 10.9 69.7C8.6334 68.8333 6.7 67.4667 5.1 65.6C3.5 63.7333 2.2334 61.4 1.3 58.6C0.433403 55.7333 0 52.3333 0 48.4C0 45.2 0.3334 41.8333 1 38.3C1.6667 34.7 2.8667 31.4 4.6 28.4C6.4 25.4 8.8334 22.9333 11.9 21C14.9667 19 18.9 18 23.7 18C25.7 18 27.4 18.2333 28.8 18.7C30.2667 19.1 31.5 19.6667 32.5 20.4C33.5667 21.1333 34.4 22 35 23C35.6667 24 36.1667 25.0667 36.5004 26.2C36.5004 26.2667 36.5004 26.0333 36.5004 25.5C36.5664 24.9 36.6334 24.2333 36.7004 23.5C36.7664 22.7667 36.8004 22.0667 36.8004 21.4C36.8664 20.6667 36.9004 20.2 36.9004 20C36.9664 19.3333 37.4004 19 38.2004 19H42.8004C46.2664 19 48.7664 19.7333 50.3004 21.2C51.9004 22.6 52.7004 25.3 52.7004 29.3C52.7004 29.8333 52.6664 31.0667 52.6004 33C52.5334 34.8667 52.4004 37.1333 52.2004 39.8C52.0664 42.4667 51.8664 45.4333 51.6004 48.7C51.3334 51.9 51.0334 55.1333 50.7004 58.4C50.3664 61.6667 50.0004 64.8 49.6004 67.8C49.2004 70.8 48.7664 73.4333 48.3004 75.7C47.8334 77.9667 47.0334 80.167 45.9004 82.3C44.7664 84.433 43.1664 86.333 41.1004 88C39.0334 89.667 36.3667 91 33.1 92C29.9 93 25.9667 93.5 21.3 93.5C17.7667 93.5 14.6667 93.167 12 92.5C9.4 91.833 7.2334 90.933 5.5 89.8C3.7667 88.733 2.4334 87.5 1.5 86.1C0.6334 84.7 0.200001 83.3 0.200001 81.9C0.200001 80.633 0.4667 79.533 1 78.6C1.5334 77.6667 2.2334 76.9 3.1 76.3C3.9667 75.7 4.9 75.2333 5.9 74.9C6.9667 74.6333 7.9667 74.5 8.9 74.5C10.0334 74.5 10.8667 74.8333 11.4 75.5C11.9334 76.1667 12.5334 76.9 13.2 77.7C13.8667 78.567 14.8 79.333 16 80C17.2 80.667 19.0667 81 21.6 81C26 81 29.0667 79.367 30.8 76.1C32.6 72.9 33.5 68.2667 33.5 62.2V62.2ZM25.1 57.7C27.5 57.7 29.3667 57.1333 30.7 56C32.1 54.8667 33.1667 53.5 33.9 51.9C34.6334 50.3 35.1 48.6333 35.3 46.9C35.5 45.1667 35.6 43.6667 35.6 42.4C35.6 38.4 34.9667 35.5667 33.7 33.9C32.5 32.1667 30.6667 31.3 28.2 31.3C25.7334 31.3 23.8 31.9667 22.4 33.3C21 34.6333 19.9334 36.2333 19.2 38.1C18.5334 39.9 18.1 41.7333 17.9 43.6C17.7 45.4 17.6 46.8 17.6 47.8C17.6 51.1333 18.1667 53.6333 19.3 55.3C20.4334 56.9 22.3667 57.7 25.1 57.7ZM76.9024 74.9C72.7684 74.9 69.8024 73.8 68.0024 71.6C66.2024 69.4 65.3024 65.7667 65.3024 60.7C65.3024 59.9 65.3354 58.9 65.4024 57.7C65.5354 56.5 65.6684 54.9667 65.8024 53.1C66.0024 51.1667 66.2354 48.8 66.5024 46C66.7684 43.2 67.0354 39.8 67.3024 35.8C67.6354 31.8 67.9684 27.1 68.3024 21.7C68.7024 16.3 69.1024 10.0333 69.5024 2.9C69.5684 1.4333 69.7354 0.566699 70.0024 0.299999C70.2024 0.0999992 70.7354 0 71.6024 0H75.5024C77.5024 0 79.1684 0.233301 80.5024 0.700001C81.8354 1.1667 82.9024 1.8 83.7024 2.6C84.5024 3.4 85.0684 4.3333 85.4024 5.4C85.7354 6.4 85.9024 7.4667 85.9024 8.6C85.9024 9.9333 85.8024 11.8667 85.6024 14.4C85.4684 16.8667 85.2684 19.6667 85.0024 22.8C84.7354 25.9333 84.4684 29.2 84.2024 32.6C83.9354 36 83.6684 39.2667 83.4024 42.4C83.1354 45.4667 82.9024 48.2333 82.7024 50.7C82.5684 53.1667 82.5024 55.0333 82.5024 56.3C82.5024 58.0333 82.8024 59.2667 83.4024 60C84.0684 60.7333 84.7684 61.2667 85.5024 61.6C86.2354 61.8667 86.9024 62.0667 87.5024 62.2C88.1684 62.2667 88.5024 62.4667 88.5024 62.8C88.5024 64.2667 88.3354 65.7333 88.0024 67.2C87.6684 68.6 87.0684 69.9 86.2024 71.1C85.3354 72.2333 84.1354 73.1667 82.6024 73.9C81.1354 74.5667 79.2354 74.9 76.9024 74.9V74.9ZM197.871 75C192.737 75 188.671 74.2667 185.671 72.8C182.671 71.2667 180.404 69.3667 178.871 67.1C177.337 64.8333 176.371 62.4 175.971 59.8C175.571 57.1333 175.371 54.7 175.371 52.5C175.371 51.6333 175.437 49.9333 175.571 47.4C175.771 44.8667 176.004 41.9333 176.271 38.6C176.537 35.2667 176.804 31.7333 177.071 28C177.337 24.2 177.604 20.6333 177.871 17.3C178.137 13.9 178.337 10.9 178.471 8.3C178.671 5.7 178.771 3.9 178.771 2.9C178.771 1.4333 178.871 0.6 179.071 0.4C179.271 0.1333 179.871 0 180.871 0H184.771C186.771 0 188.437 0.233301 189.771 0.700001C191.104 1.1667 192.171 1.8 192.971 2.6C193.771 3.4 194.337 4.3333 194.671 5.4C195.004 6.4 195.171 7.5 195.171 8.7C195.171 9.8333 195.037 12.0333 194.771 15.3C194.571 18.5667 194.304 22.4 193.971 26.8C195.704 23.8 197.671 21.6 199.871 20.2C202.071 18.7333 204.971 18 208.571 18C214.637 18 219.271 20 222.471 24C225.737 28 227.371 33.9667 227.371 41.9C227.371 43.9667 227.204 46.2333 226.871 48.7C226.604 51.1667 226.071 53.6333 225.271 56.1C224.537 58.5 223.471 60.8667 222.071 63.2C220.737 65.4667 218.971 67.4667 216.771 69.2C214.571 70.9333 211.904 72.3333 208.771 73.4C205.704 74.4667 202.071 75 197.871 75V75ZM202.371 31.3C199.971 31.3 198.071 31.9333 196.671 33.2C195.337 34.4667 194.304 36 193.571 37.8C192.837 39.6 192.371 41.5333 192.171 43.6C191.971 45.6 191.871 47.3667 191.871 48.9C191.871 53.5 192.504 56.8 193.771 58.8C195.037 60.7333 196.937 61.7 199.471 61.7C201.871 61.7 203.737 60.9667 205.071 59.5C206.471 57.9667 207.504 56.1667 208.171 54.1C208.904 52.0333 209.371 49.9333 209.571 47.8C209.771 45.6667 209.871 44 209.871 42.8C209.871 39.0667 209.304 36.2333 208.171 34.3C207.037 32.3 205.104 31.3 202.371 31.3ZM238.092 89C237.358 89 236.992 88.633 236.992 87.9L237.292 82.5C237.358 81.633 237.458 80.767 237.592 79.9C237.792 79.1 238.125 78.367 238.592 77.7C239.125 77.0333 239.858 76.5 240.792 76.1C241.725 75.7 242.958 75.5 244.492 75.5H277.692C278.092 75.5 278.458 75.6 278.792 75.8C279.125 76.0667 279.292 76.4333 279.292 76.9L278.892 82.3C278.758 84.3 278.192 85.9 277.192 87.1C276.258 88.367 274.292 89 271.292 89H238.092Z" fill="url(#paint0_linear)"/>
<path d="M108.964 10.9999C115.964 4.5 135.664 -4.2001 154.464 10.9999C147.464 25.5 115.964 4.5 108.964 10.9999Z" fill="url(#paint1_linear)"/>
<path d="M154.464 10.9999C146.964 4.5 127.764 -4.2001 108.964 10.9999C115.964 25.5 146.964 4.5 154.464 10.9999Z" fill="url(#paint2_linear)"/>
<path d="M166.964 41.9999C159.964 29.5 103.964 22.4999 96.4644 31.4999V36.4999C116.464 25.4594 143.464 68.9999 166.964 41.9999Z" fill="url(#paint3_linear)"/>
<path d="M96.4644 36.5C96.4644 36.5 95.9644 34.0001 96.4644 31.5001C131.964 54 161.464 -4.4999 166.964 30.0001C167.761 35.0001 166.964 42.0001 166.964 42.0001C158.964 28.0001 126.964 59.0001 96.4644 36.5Z" fill="url(#paint4_linear)"/>
<path d="M160.964 58.4999C151.464 70.5 126.964 86.5 102.964 58.4999C128.464 72.5 159.464 46 160.964 58.4999Z" fill="url(#paint5_linear)"/>
<path d="M102.964 58.4999C131.223 91.2333 157.71 63.1106 160.964 58.4999C135.464 72.5 104.464 46 102.964 58.4999Z" fill="url(#paint6_linear)"/>
</g>
<defs>
<linearGradient id="paint0_linear" x1="-28.0356" y1="74" x2="261.116" y2="157.041" gradientUnits="userSpaceOnUse">
<stop stop-color="#FFE600"/>
<stop offset="1" stop-color="#FF0F91"/>
</linearGradient>
<linearGradient id="paint1_linear" x1="112.894" y1="14.2695" x2="145.341" y2="22.7255" gradientUnits="userSpaceOnUse">
<stop stop-color="#FFE600"/>
<stop offset="1" stop-color="#BC2A79"/>
</linearGradient>
<linearGradient id="paint2_linear" x1="103.964" y1="16" x2="186.836" y2="-5.5971" gradientUnits="userSpaceOnUse">
<stop stop-color="#FFE600"/>
<stop offset="1" stop-color="#FF0F91"/>
</linearGradient>
<linearGradient id="paint3_linear" x1="102.553" y1="47.6177" x2="153.45" y2="59.5404" gradientUnits="userSpaceOnUse">
<stop stop-color="#BBAD30"/>
<stop offset="1" stop-color="#BA2A78"/>
</linearGradient>
<linearGradient id="paint4_linear" x1="102.381" y1="41.2445" x2="198.082" y2="61.852" gradientUnits="userSpaceOnUse">
<stop stop-color="#FFE600"/>
<stop offset="1" stop-color="#FF0F91"/>
</linearGradient>
<linearGradient id="paint5_linear" x1="93.9644" y1="69" x2="157.105" y2="54.9277" gradientUnits="userSpaceOnUse">
<stop stop-color="#FFE600"/>
<stop offset="1" stop-color="#C43B85"/>
</linearGradient>
<linearGradient id="paint6_linear" x1="107.974" y1="71.2578" x2="181.719" y2="82.696" gradientUnits="userSpaceOnUse">
<stop stop-color="#FFE600"/>
<stop offset="1" stop-color="#FF0F91"/>
</linearGradient>
<clipPath id="clip0">
<rect width="279.292" height="93.5" fill="white"/>
</clipPath>
</defs>
</svg>
